<mxfile host="app.diagrams.net" modified="2021-03-07T08:55:48.193Z" agent="5.0 (Windows)" etag="nzBA364LlwzJoGNTYhyB" version="14.4.4" type="github">
  <diagram id="kgpKYQtTHZ0yAKxKKP6v" name="Page-1">
    <mxGraphModel dx="813" dy="436" grid="1" gridSize="10" guides="1" tooltips="1" connect="1" arrows="1" fold="1" page="1" pageScale="1" pageWidth="850" pageHeight="1100" math="0" shadow="0">
      <root>
        <mxCell id="0" />
        <mxCell id="1" parent="0" />
        <mxCell id="3nuBFxr9cyL0pnOWT2aG-1" value="Test Harness" style="shape=umlLifeline;perimeter=lifelinePerimeter;container=1;collapsible=0;recursiveResize=0;rounded=0;shadow=0;strokeWidth=1;fillColor=#fff2cc;strokeColor=#d6b656;" parent="1" vertex="1">
          <mxGeometry x="120" y="80" width="100" height="300" as="geometry" />
        </mxCell>
        <mxCell id="3nuBFxr9cyL0pnOWT2aG-2" value="" style="points=[];perimeter=orthogonalPerimeter;rounded=0;shadow=0;strokeWidth=1;fillColor=#fff2cc;strokeColor=#d6b656;" parent="3nuBFxr9cyL0pnOWT2aG-1" vertex="1">
          <mxGeometry x="45" y="70" width="10" height="40" as="geometry" />
        </mxCell>
        <mxCell id="3nuBFxr9cyL0pnOWT2aG-5" value="TSM Service" style="shape=umlLifeline;perimeter=lifelinePerimeter;container=1;collapsible=0;recursiveResize=0;rounded=0;shadow=0;strokeWidth=1;fillColor=#dae8fc;strokeColor=#6c8ebf;" parent="1" vertex="1">
          <mxGeometry x="300" y="80" width="100" height="300" as="geometry" />
        </mxCell>
        <mxCell id="3nuBFxr9cyL0pnOWT2aG-6" value="" style="points=[];perimeter=orthogonalPerimeter;rounded=0;shadow=0;strokeWidth=1;fillColor=#dae8fc;strokeColor=#6c8ebf;" parent="3nuBFxr9cyL0pnOWT2aG-5" vertex="1">
          <mxGeometry x="45" y="80" width="10" height="160" as="geometry" />
        </mxCell>
        <mxCell id="VsNk7tw-Om5jeoB8xYvJ-13" value="" style="endArrow=classic;html=1;fontSize=10;edgeStyle=orthogonalEdgeStyle;entryX=1.18;entryY=0.764;entryDx=0;entryDy=0;entryPerimeter=0;" edge="1" parent="3nuBFxr9cyL0pnOWT2aG-5" target="3nuBFxr9cyL0pnOWT2aG-6">
          <mxGeometry width="50" height="50" relative="1" as="geometry">
            <mxPoint x="60" y="180" as="sourcePoint" />
            <mxPoint x="120" y="210" as="targetPoint" />
            <Array as="points">
              <mxPoint x="90" y="180" />
              <mxPoint x="90" y="202" />
            </Array>
          </mxGeometry>
        </mxCell>
        <mxCell id="3nuBFxr9cyL0pnOWT2aG-8" value="AddTreatmentSessionCommand" style="verticalAlign=bottom;endArrow=block;entryX=0;entryY=0;shadow=0;strokeWidth=1;dashed=1;fontSize=10;fontStyle=0" parent="1" source="3nuBFxr9cyL0pnOWT2aG-2" target="3nuBFxr9cyL0pnOWT2aG-6" edge="1">
          <mxGeometry relative="1" as="geometry">
            <mxPoint x="275" y="160" as="sourcePoint" />
          </mxGeometry>
        </mxCell>
        <mxCell id="VsNk7tw-Om5jeoB8xYvJ-1" value="Task Manager" style="shape=umlLifeline;perimeter=lifelinePerimeter;container=1;collapsible=0;recursiveResize=0;rounded=0;shadow=0;strokeWidth=1;fillColor=#dae8fc;strokeColor=#6c8ebf;" vertex="1" parent="1">
          <mxGeometry x="440" y="80" width="100" height="300" as="geometry" />
        </mxCell>
        <mxCell id="VsNk7tw-Om5jeoB8xYvJ-2" value="" style="points=[];perimeter=orthogonalPerimeter;rounded=0;shadow=0;strokeWidth=1;fillColor=#dae8fc;strokeColor=#6c8ebf;" vertex="1" parent="VsNk7tw-Om5jeoB8xYvJ-1">
          <mxGeometry x="45" y="80" width="10" height="40" as="geometry" />
        </mxCell>
        <mxCell id="VsNk7tw-Om5jeoB8xYvJ-3" value="DICOM Bridge&#xa; Emulator" style="shape=umlLifeline;perimeter=lifelinePerimeter;container=1;collapsible=0;recursiveResize=0;rounded=0;shadow=0;strokeWidth=1;fillColor=#fff2cc;strokeColor=#d6b656;" vertex="1" parent="1">
          <mxGeometry x="580" y="80" width="100" height="300" as="geometry" />
        </mxCell>
        <mxCell id="VsNk7tw-Om5jeoB8xYvJ-4" value="" style="points=[];perimeter=orthogonalPerimeter;rounded=0;shadow=0;strokeWidth=1;fillColor=#fff2cc;strokeColor=#d6b656;" vertex="1" parent="VsNk7tw-Om5jeoB8xYvJ-3">
          <mxGeometry x="45" y="90" width="10" height="80" as="geometry" />
        </mxCell>
        <mxCell id="VsNk7tw-Om5jeoB8xYvJ-5" value="" style="verticalAlign=bottom;endArrow=block;shadow=0;strokeWidth=1;fontSize=10;fontStyle=0;exitX=1.1;exitY=0.061;exitDx=0;exitDy=0;exitPerimeter=0;entryX=0.143;entryY=0.229;entryDx=0;entryDy=0;entryPerimeter=0;" edge="1" parent="1" source="3nuBFxr9cyL0pnOWT2aG-6" target="VsNk7tw-Om5jeoB8xYvJ-2">
          <mxGeometry x="-0.0169" y="10" relative="1" as="geometry">
            <mxPoint x="360" y="170" as="sourcePoint" />
            <mxPoint x="486" y="171" as="targetPoint" />
            <mxPoint as="offset" />
          </mxGeometry>
        </mxCell>
        <mxCell id="VsNk7tw-Om5jeoB8xYvJ-10" value="CreateTaskAsync" style="edgeLabel;html=1;align=center;verticalAlign=middle;resizable=0;points=[];fontSize=10;" vertex="1" connectable="0" parent="VsNk7tw-Om5jeoB8xYvJ-5">
          <mxGeometry x="0.1323" relative="1" as="geometry">
            <mxPoint as="offset" />
          </mxGeometry>
        </mxCell>
        <mxCell id="VsNk7tw-Om5jeoB8xYvJ-6" value="" style="endArrow=classic;html=1;fontSize=10;exitX=0.02;exitY=0.755;exitDx=0;exitDy=0;exitPerimeter=0;entryX=1.02;entryY=0.189;entryDx=0;entryDy=0;entryPerimeter=0;" edge="1" parent="1" source="VsNk7tw-Om5jeoB8xYvJ-2" target="3nuBFxr9cyL0pnOWT2aG-6">
          <mxGeometry width="50" height="50" relative="1" as="geometry">
            <mxPoint x="400" y="240" as="sourcePoint" />
            <mxPoint x="356" y="192" as="targetPoint" />
          </mxGeometry>
        </mxCell>
        <mxCell id="VsNk7tw-Om5jeoB8xYvJ-9" value="TaskId" style="edgeLabel;html=1;align=center;verticalAlign=middle;resizable=0;points=[];fontSize=10;" vertex="1" connectable="0" parent="VsNk7tw-Om5jeoB8xYvJ-6">
          <mxGeometry x="-0.1077" y="1" relative="1" as="geometry">
            <mxPoint as="offset" />
          </mxGeometry>
        </mxCell>
        <mxCell id="VsNk7tw-Om5jeoB8xYvJ-7" value="" style="endArrow=classic;html=1;fontSize=10;exitX=1.06;exitY=0.309;exitDx=0;exitDy=0;exitPerimeter=0;entryX=0.06;entryY=0.503;entryDx=0;entryDy=0;entryPerimeter=0;" edge="1" parent="1" source="3nuBFxr9cyL0pnOWT2aG-6" target="VsNk7tw-Om5jeoB8xYvJ-4">
          <mxGeometry width="50" height="50" relative="1" as="geometry">
            <mxPoint x="360" y="210" as="sourcePoint" />
            <mxPoint x="520" y="210" as="targetPoint" />
          </mxGeometry>
        </mxCell>
        <mxCell id="VsNk7tw-Om5jeoB8xYvJ-8" value="GetRTPlan" style="edgeLabel;html=1;align=center;verticalAlign=middle;resizable=0;points=[];fontSize=10;" vertex="1" connectable="0" parent="VsNk7tw-Om5jeoB8xYvJ-7">
          <mxGeometry x="-0.1652" relative="1" as="geometry">
            <mxPoint as="offset" />
          </mxGeometry>
        </mxCell>
        <mxCell id="VsNk7tw-Om5jeoB8xYvJ-11" value="" style="endArrow=classic;html=1;fontSize=10;entryX=1.02;entryY=0.494;entryDx=0;entryDy=0;entryPerimeter=0;exitX=0.02;exitY=0.863;exitDx=0;exitDy=0;exitPerimeter=0;" edge="1" parent="1" source="VsNk7tw-Om5jeoB8xYvJ-4" target="3nuBFxr9cyL0pnOWT2aG-6">
          <mxGeometry width="50" height="50" relative="1" as="geometry">
            <mxPoint x="620" y="239" as="sourcePoint" />
            <mxPoint x="550" y="210" as="targetPoint" />
          </mxGeometry>
        </mxCell>
        <mxCell id="VsNk7tw-Om5jeoB8xYvJ-12" value="RTPlan" style="edgeLabel;html=1;align=center;verticalAlign=middle;resizable=0;points=[];fontSize=10;" vertex="1" connectable="0" parent="VsNk7tw-Om5jeoB8xYvJ-11">
          <mxGeometry x="0.2065" relative="1" as="geometry">
            <mxPoint as="offset" />
          </mxGeometry>
        </mxCell>
        <mxCell id="VsNk7tw-Om5jeoB8xYvJ-14" value="Map RTPlan to synopsis" style="text;html=1;strokeColor=none;fillColor=none;align=center;verticalAlign=middle;whiteSpace=wrap;rounded=0;fontSize=10;" vertex="1" parent="1">
          <mxGeometry x="390" y="250" width="50" height="30" as="geometry" />
        </mxCell>
        <mxCell id="VsNk7tw-Om5jeoB8xYvJ-16" value="SQL Server" style="shape=umlLifeline;perimeter=lifelinePerimeter;container=1;collapsible=0;recursiveResize=0;rounded=0;shadow=0;strokeWidth=1;fillColor=#dae8fc;strokeColor=#6c8ebf;" vertex="1" parent="1">
          <mxGeometry x="730" y="80" width="100" height="300" as="geometry" />
        </mxCell>
        <mxCell id="VsNk7tw-Om5jeoB8xYvJ-17" value="" style="points=[];perimeter=orthogonalPerimeter;rounded=0;shadow=0;strokeWidth=1;fillColor=#dae8fc;strokeColor=#6c8ebf;" vertex="1" parent="VsNk7tw-Om5jeoB8xYvJ-16">
          <mxGeometry x="45" y="200" width="10" height="50" as="geometry" />
        </mxCell>
        <mxCell id="VsNk7tw-Om5jeoB8xYvJ-18" value="" style="endArrow=classic;html=1;fontSize=10;exitX=1.02;exitY=0.874;exitDx=0;exitDy=0;exitPerimeter=0;entryX=0.229;entryY=0.377;entryDx=0;entryDy=0;entryPerimeter=0;endSize=6;rounded=1;" edge="1" parent="1" source="3nuBFxr9cyL0pnOWT2aG-6" target="VsNk7tw-Om5jeoB8xYvJ-17">
          <mxGeometry width="50" height="50" relative="1" as="geometry">
            <mxPoint x="490" y="300" as="sourcePoint" />
            <mxPoint x="540" y="250" as="targetPoint" />
          </mxGeometry>
        </mxCell>
        <mxCell id="VsNk7tw-Om5jeoB8xYvJ-19" value="Store Data" style="edgeLabel;html=1;align=center;verticalAlign=middle;resizable=0;points=[];fontSize=10;" vertex="1" connectable="0" parent="VsNk7tw-Om5jeoB8xYvJ-18">
          <mxGeometry x="-0.1299" y="-1" relative="1" as="geometry">
            <mxPoint as="offset" />
          </mxGeometry>
        </mxCell>
      </root>
    </mxGraphModel>
  </diagram>
</mxfile>
